<svg xmlns="http://www.w3.org/2000/svg" xmlns:xlink="http://www.w3.org/1999/xlink" viewBox="0,0,256,256" width="240px" height="240px"><defs><linearGradient x1="5.789" y1="15.644" x2="31.324" y2="29.221" gradientUnits="userSpaceOnUse" id="color-1"><stop offset="0" stop-color="#4caf50"></stop><stop offset="0.489" stop-color="#4aaf50"></stop><stop offset="0.665" stop-color="#43ad50"></stop><stop offset="0.79" stop-color="#38aa50"></stop><stop offset="0.892" stop-color="#27a550"></stop><stop offset="0.978" stop-color="#11a050"></stop><stop offset="1" stop-color="#0a9e50"></stop></linearGradient><linearGradient x1="33.58" y1="44" x2="33.58" y2="15.203" gradientUnits="userSpaceOnUse" id="color-2"><stop offset="0" stop-color="#ffd747"></stop><stop offset="0.482" stop-color="#ffd645"></stop><stop offset="0.655" stop-color="#fed43e"></stop><stop offset="0.779" stop-color="#fccf33"></stop><stop offset="0.879" stop-color="#fac922"></stop><stop offset="0.964" stop-color="#f7c10c"></stop><stop offset="1" stop-color="#f5bc00"></stop></linearGradient><linearGradient x1="36.128" y1="5.703" x2="11.574" y2="21.046" gradientUnits="userSpaceOnUse" id="color-3"><stop offset="0" stop-color="#f7572f"></stop><stop offset="0.523" stop-color="#f7552d"></stop><stop offset="0.712" stop-color="#f75026"></stop><stop offset="0.846" stop-color="#f7461b"></stop><stop offset="0.954" stop-color="#f7390a"></stop><stop offset="1" stop-color="#f73100"></stop></linearGradient><linearGradient x1="19.05" y1="19.05" x2="28.95" y2="28.95" gradientUnits="userSpaceOnUse" id="color-4"><stop offset="0" stop-color="#2aa4f4"></stop><stop offset="1" stop-color="#007ad9"></stop></linearGradient></defs><g transform="translate(-24.32,-24.32) scale(1.19,1.19)"><g fill="none" fill-rule="nonzero" stroke="none" stroke-width="1" stroke-linecap="butt" stroke-linejoin="miter" stroke-miterlimit="10" stroke-dasharray="" stroke-dashoffset="0" font-family="none" font-weight="none" font-size="none" text-anchor="none" style="mix-blend-mode: normal"><g transform="scale(5.33333,5.33333)"><path d="M34,24c0,5.521 -4.479,10 -10,10c-5.521,0 -10,-4.479 -10,-10c0,-5.521 4.479,-10 10,-10c5.521,0 10,4.479 10,10z" fill="#ffffff"></path><path d="M31.33,29.21l-8.16,14.77c-10.66,-0.43 -19.17,-9.22 -19.17,-19.98c0,-11.04 8.96,-20 20,-20v11c-4.97,0 -9,4.03 -9,9c0,4.97 4.03,9 9,9c3.03,0 5.7,-1.49 7.33,-3.79z" fill="url(#color-1)"></path><path d="M44,24c0,11.05 -8.95,20 -20,20h-0.84l8.17,-14.79c1.05,-1.47 1.67,-3.27 1.67,-5.21c0,-4.97 -4.03,-9 -9,-9v-11c7.81,0 14.55,4.48 17.85,11c1.36,2.71 2.15,5.76 2.15,9z" fill="url(#color-2)"></path><path d="M41.84,15h-17.84c-4.97,0 -9,4.03 -9,9c0,1.49 0.36,2.89 1.01,4.13h-0.01l-8.84,-14.87h-0.02c3.54,-5.57 9.77,-9.26 16.86,-9.26c7.8,0 14.55,4.48 17.84,11z" fill="url(#color-3)"></path><path d="M31,24c0,3.867 -3.133,7 -7,7c-3.867,0 -7,-3.133 -7,-7c0,-3.867 3.133,-7 7,-7c3.867,0 7,3.133 7,7z" fill="url(#color-4)"></path></g></g></g></svg>