<svg xmlns="http://www.w3.org/2000/svg" xmlns:xlink="http://www.w3.org/1999/xlink" viewBox="0,0,256,256" width="240px" height="240px"><g transform="translate(-25.6,-25.6) scale(1.2,1.2)"><g fill="none" fill-rule="nonzero" stroke="none" stroke-width="1" stroke-linecap="butt" stroke-linejoin="miter" stroke-miterlimit="10" stroke-dasharray="" stroke-dashoffset="0" font-family="none" font-weight="none" font-size="none" text-anchor="none" style="mix-blend-mode: normal"><g transform="translate(-0.03875,-0.00226) scale(5.33333,5.33333)"><path d="M39.847,36.167c0.01,-0.014 0.024,-0.027 0.034,-0.041l-0.033,0.008c-0.01,0.014 -0.022,0.027 -0.033,0.041z" fill="#80d8ff"></path><path d="M14.627,41.645c4.036,2.155 8.823,2.946 13.644,1.891c4.821,-1.054 8.842,-3.77 11.61,-7.412z" fill="#00e5ff"></path><path d="M14.637,41.644l25.211,-5.511c1.279,-1.674 2.307,-3.534 3.008,-5.532l-33.238,7.266c1.465,1.516 3.158,2.791 5.009,3.779z" fill="#80d8ff"></path><path d="M43.937,25.49l-37.433,8.183c0.856,1.55 1.915,2.952 3.12,4.2l33.226,-7.254c0.576,-1.639 0.955,-3.358 1.087,-5.129z" fill="#82b1ff"></path><path d="M43.937,25.49c0.14,-1.885 0.024,-3.82 -0.4,-5.762l-39.073,8.542c0.425,1.941 1.126,3.748 2.04,5.402z" fill="#8c9eff"></path><path d="M43.537,19.73c-0.372,-1.704 -0.972,-3.295 -1.726,-4.782l-37.767,8.131c-0.078,1.706 0.039,3.445 0.421,5.192z" fill="#b388ff"></path><path d="M41.809,14.948c0.013,0.026 0.034,0.049 0.049,0.073c-1.1,-2.182 -2.568,-4.113 -4.318,-5.722l-31.978,6.991c-0.891,2.127 -1.396,4.421 -1.505,6.785z" fill="#ea80fc"></path><path d="M37.54,9.3c0.012,0.011 0.029,0.018 0.042,0.03c-1.742,-1.608 -3.759,-2.896 -5.95,-3.804l-22.275,4.869c-1.599,1.725 -2.872,3.725 -3.781,5.892z" fill="#ff80ab"></path><path d="M9.357,10.395l22.276,-4.869c-3.641,-1.508 -7.76,-1.968 -11.903,-1.063c-4.143,0.905 -7.694,3.042 -10.373,5.932z" fill="#ff8a80"></path><path d="M24,5.999c-9.94,0 -18,8.06 -18,18.001c0,9.941 8.059,18.001 18,18.001c9.941,0 18,-8.06 18,-18.001c0,-9.941 -8.059,-18.001 -18,-18.001zM33,28.312c0,2.577 -2.09,4.668 -4.667,4.668h-0.092c-1.623,0 -2.977,-0.943 -3.225,-2.546c-0.045,-0.295 -0.048,-0.59 -0.009,-0.885c0.164,-1.264 1.064,-2.291 2.255,-2.646l0.264,-0.064l2.789,-0.839c0.403,-0.103 0.685,-0.465 0.685,-0.881v-6.807c0,-0.565 -0.489,-0.994 -1.046,-0.896l-7.929,1.728c-0.605,0.107 -1.025,0.632 -1.025,1.247v10.941c0,2.578 -1.908,4.668 -4.485,4.668h-0.092c-1.623,0 -3.138,-1.104 -3.386,-2.707c-0.045,-0.295 -0.048,-0.59 -0.009,-0.885c0.164,-1.264 1.064,-2.291 2.255,-2.646l0.264,-0.064l2.77,-0.819c0.401,-0.101 0.683,-0.464 0.683,-0.879v-13.333c0,-0.604 0.433,-1.12 1.027,-1.225l11.905,-2.428c0.558,-0.098 1.068,0.33 1.068,0.896z" fill="#ffffff"></path></g></g></g></svg>