<svg xmlns="http://www.w3.org/2000/svg" xmlns:xlink="http://www.w3.org/1999/xlink" viewBox="0,0,256,256" width="240px" height="240px"><defs><radialGradient cx="24" cy="24" r="19" gradientUnits="userSpaceOnUse" id="color-1"><stop offset="0.45" stop-color="#46c433"></stop><stop offset="0.538" stop-color="#45c033"></stop><stop offset="0.629" stop-color="#44b333"></stop><stop offset="0.721" stop-color="#409f32"></stop><stop offset="0.814" stop-color="#3c8232"></stop><stop offset="0.907" stop-color="#375d31"></stop><stop offset="1" stop-color="#303030"></stop></radialGradient><linearGradient x1="38.136" y1="38.136" x2="9.864" y2="9.864" gradientUnits="userSpaceOnUse" id="color-2"><stop offset="0" stop-color="#999999"></stop><stop offset="0.071" stop-color="#b0b0b0"></stop><stop offset="0.18" stop-color="#cdcdcd"></stop><stop offset="0.289" stop-color="#e1e1e1"></stop><stop offset="0.397" stop-color="#eeeeee"></stop><stop offset="0.5" stop-color="#f2f2f2"></stop><stop offset="0.591" stop-color="#eeeeee"></stop><stop offset="0.686" stop-color="#e1e1e1"></stop><stop offset="0.781" stop-color="#cdcdcd"></stop><stop offset="0.878" stop-color="#b0b0b0"></stop><stop offset="0.976" stop-color="#8b8b8b"></stop><stop offset="1" stop-color="#000000"></stop></linearGradient><radialGradient cx="39.85846" cy="35.72805" r="15.326" gradientUnits="userSpaceOnUse" id="color-3"><stop offset="0" stop-color="#ffabd6"></stop><stop offset="0.015" stop-color="#ffc0de"></stop><stop offset="0.037" stop-color="#ffd6e7"></stop><stop offset="0.063" stop-color="#ffe7ed"></stop><stop offset="0.094" stop-color="#fff2f2"></stop><stop offset="0.139" stop-color="#fff9f4"></stop><stop offset="0.262" stop-color="#fffbf5"></stop><stop offset="0.361" stop-color="#fefaf1"></stop><stop offset="0.464" stop-color="#fcf8e4"></stop><stop offset="0.569" stop-color="#f8f4d0"></stop><stop offset="0.674" stop-color="#f3efb3"></stop><stop offset="0.781" stop-color="#ede88d"></stop><stop offset="0.888" stop-color="#e5df5f"></stop><stop offset="0.995" stop-color="#dcd62a"></stop><stop offset="1" stop-color="#dbd527"></stop></radialGradient><radialGradient cx="20.32129" cy="21.34188" r="24.14965" gradientUnits="userSpaceOnUse" id="color-4"><stop offset="0" stop-color="#f2f2f2"></stop><stop offset="0.155" stop-color="#eeeeee"></stop><stop offset="0.297" stop-color="#e3e3e3"></stop><stop offset="0.435" stop-color="#d0d0d0"></stop><stop offset="0.569" stop-color="#b6b6b6"></stop><stop offset="0.701" stop-color="#959595"></stop><stop offset="0.769" stop-color="#000000"></stop></radialGradient></defs><g transform="translate(-19.2,-19.2) scale(1.15,1.15)"><g fill="none" fill-rule="nonzero" stroke="none" stroke-width="1" stroke-linecap="butt" stroke-linejoin="miter" stroke-miterlimit="10" stroke-dasharray="" stroke-dashoffset="0" font-family="none" font-weight="none" font-size="none" text-anchor="none" style="mix-blend-mode: normal"><g transform="translate(4.58108,-3.73333) scale(5.33333,5.33333)"><circle cx="24" cy="24" r="19" fill="url(#color-1)"></circle><path d="M24,44c-11.028,0 -20,-8.972 -20,-20c0,-11.028 8.972,-20 20,-20c11.028,0 20,8.972 20,20c0,11.028 -8.972,20 -20,20zM24,6c-9.925,0 -18,8.075 -18,18c0,9.925 8.075,18 18,18c9.925,0 18,-8.075 18,-18c0,-9.925 -8.075,-18 -18,-18z" fill="url(#color-2)"></path><path d="M38.76,34.28c-0.17,0.25 -0.35,0.5 -0.55,0.74c-1.54,-0.29 -4.47,-0.96 -6.01,-2.07c-2.15,-1.57 -2.33,-2.97 -1.58,-4.01c0.75,-1.03 2.14,-1.3 4.3,0.27c1.54,1.11 3.08,3.69 3.84,5.07z" fill="url(#color-3)"></path><path d="M39.04,22.6l-7.5,7.05l-4.47,9.11l-3.96,-2.8l0.23,-6.63l-0.17,-0.13l-5.99,8.08l-4.45,-3.2l1.82,-10.47l-6.76,-7.43l-1.44,-1.58c0.9,-1.69 2.03,-3.23 3.36,-4.58l1.94,0.91l9.07,4.24l9.42,-4.82l4.53,3.29l-6,8.11l0.05,0.03l6.28,-2.09z" fill="#000000" opacity="0.05"></path><path d="M38.26,22.65l-7.13,6.7l-4.25,8.67l-3.26,-2.32l0.23,-6.62l-0.79,-0.58l-5.98,8.09l-3.8,-2.73l1.81,-10.4l-7.05,-7.75l-1.43,-1.57c0.76,-1.35 1.68,-2.61 2.73,-3.74l1.92,0.9l9.47,4.43l9.36,-4.8l3.88,2.82l-6,8.1l0.66,0.49l6.28,-2.09z" fill="#000000" opacity="0.07"></path><path d="M2.782,8.446l17.965,8.399l9.254,-4.744l2.567,1.867l-5.988,8.088l1.866,1.4l6.299,-2.1l1.945,1.4l-6.378,5.988l-3.81,7.777l-1.867,-1.322l0.234,-6.611l-2.022,-1.477l-5.989,8.088l-2.488,-1.789l1.788,-10.265z" fill="url(#color-4)"></path><path d="M26.502,37.021c-0.103,0 -0.204,-0.031 -0.289,-0.092l-1.866,-1.321c-0.138,-0.098 -0.217,-0.258 -0.211,-0.426l0.224,-6.346l-1.406,-1.028l-5.692,7.689c-0.164,0.22 -0.472,0.268 -0.694,0.108l-2.489,-1.789c-0.155,-0.112 -0.233,-0.303 -0.2,-0.492l1.745,-10.024l-13.212,-14.517c-0.16,-0.177 -0.174,-0.441 -0.032,-0.634c0.142,-0.191 0.398,-0.254 0.614,-0.156l17.743,8.295l9.035,-4.632c0.168,-0.083 0.37,-0.069 0.522,0.041l2.566,1.866c0.108,0.078 0.18,0.196 0.2,0.328c0.02,0.132 -0.013,0.267 -0.093,0.374l-5.692,7.688l1.261,0.944l6.05,-2.018c0.152,-0.05 0.32,-0.026 0.45,0.069l1.944,1.4c0.121,0.087 0.197,0.224 0.207,0.373c0.01,0.148 -0.048,0.295 -0.157,0.396l-6.31,5.926l-3.771,7.694c-0.064,0.132 -0.184,0.229 -0.326,0.265c-0.038,0.014 -0.08,0.019 -0.121,0.019zM25.145,34.947l1.167,0.826l3.552,-7.249c0.026,-0.055 0.063,-0.104 0.107,-0.145l5.934,-5.573l-1.244,-0.896l-6.056,2.02c-0.156,0.05 -0.326,0.023 -0.458,-0.074l-1.867,-1.4c-0.22,-0.165 -0.266,-0.477 -0.102,-0.698l5.688,-7.683l-1.91,-1.389l-8.979,4.604c-0.14,0.069 -0.301,0.072 -0.44,0.008l-15.704,-7.341l11.695,12.851c0.104,0.114 0.149,0.271 0.122,0.423l-1.734,9.957l1.834,1.318l5.694,-7.693c0.165,-0.221 0.477,-0.268 0.697,-0.105l2.021,1.479c0.134,0.098 0.211,0.255 0.205,0.421z" fill="#7a7a7a"></path></g></g></g></svg>