<svg xmlns="http://www.w3.org/2000/svg" xmlns:xlink="http://www.w3.org/1999/xlink" viewBox="0,0,256,256" width="240px" height="240px"><g fill="none" fill-rule="nonzero" stroke="none" stroke-width="1" stroke-linecap="butt" stroke-linejoin="miter" stroke-miterlimit="10" stroke-dasharray="" stroke-dashoffset="0" font-family="none" font-weight="none" font-size="none" text-anchor="none" style="mix-blend-mode: normal"><g transform="scale(5.33333,5.33333)"><rect x="18" y="8" width="29" height="32" fill="#76b900"></rect><path d="M18,17.68c0.52,-0.05 1.05,-0.09 1.57,-0.07c4.95,0 7.9,3.85 7.9,3.85l-4.03,3.39c-1.8,-3.02 -2.43,-4.35 -5.44,-4.71zM18,28.72c0.73,0.24 1.52,0.36 2.3,0.36c5.88,0 11.35,-7.6 11.35,-7.6c0,0 -5.07,-6.91 -12.81,-6.66c-0.28,0 -0.56,0.02 -0.84,0.03v-2.3l0.84,-0.05c10.76,-0.37 17.78,8.82 17.78,8.82c0,0 -8.05,9.8 -16.44,9.8c-0.73,0 -1.47,-0.07 -2.18,-0.19zM19.95,36.09c-0.66,0 -1.32,-0.03 -1.95,-0.1v-2.44c0.59,0.07 1.22,0.12 1.81,0.12c7.82,0 13.47,-3.99 18.94,-8.7c0.91,0.73 4.62,2.49 5.39,3.26c-5.2,4.36 -17.32,7.86 -24.19,7.86z" fill="#fafafa"></path><path d="M18,28.717v2.232c-7.219,-1.29 -9.225,-8.806 -9.225,-8.806c0,0 3.47,-3.836 9.225,-4.464v2.441h-0.017c-3.017,-0.366 -5.388,2.459 -5.388,2.459c0,0 1.342,4.76 5.405,6.138" fill="#76b900"></path><path d="M5.183,21.829c0,0 4.272,-6.313 12.834,-6.975v-2.302c-9.486,0.767 -17.682,8.789 -17.682,8.789c0,0 4.639,13.427 17.665,14.648v-2.441c-9.556,-1.187 -12.817,-11.719 -12.817,-11.719z" fill="#76b900"></path></g></g></svg>