<svg xmlns="http://www.w3.org/2000/svg" xmlns:xlink="http://www.w3.org/1999/xlink" viewBox="0,0,256,256" width="240px" height="240px"><g transform="translate(-24.32,-24.32) scale(1.19,1.19)"><g fill="none" fill-rule="evenodd" stroke="none" stroke-width="1" stroke-linecap="butt" stroke-linejoin="miter" stroke-miterlimit="10" stroke-dasharray="" stroke-dashoffset="0" font-family="none" font-weight="none" font-size="none" text-anchor="none" style="mix-blend-mode: normal"><g transform="translate(2.66133,-0.66667) scale(5.33333,5.33333)"><path d="M23.501,44.125c11.016,0 20,-8.984 20,-20c0,-11.015 -8.984,-20 -20,-20c-11.016,0 -20,8.985 -20,20c0,11.016 8.984,20 20,20z" fill="#4caf50"></path><path d="M43.252,27.114c-3.534,-1.122 -5.197,-7.489 -9.252,-16.114l-7,1.077c1.615,4.905 8.781,16.872 0.728,18.853c-6.903,1.792 -10.155,-10.411 -12.728,-16.93l-8,2l10.178,27.081c1.991,0.67 4.112,1.044 6.323,1.044c0.982,0 1.941,-0.094 2.885,-0.232l-4.443,-8.376c6.868,1.552 12.308,-0.869 12.962,-6.203c1.727,2.29 4.089,3.183 6.734,3.172c0.78,-1.679 1.326,-3.48 1.613,-5.372z" fill="#ffffff"></path></g></g></g></svg>