<svg xmlns="http://www.w3.org/2000/svg" xmlns:xlink="http://www.w3.org/1999/xlink" viewBox="0,0,256,256" width="240px" height="240px"><defs><linearGradient x1="24" y1="18" x2="24" y2="30" gradientUnits="userSpaceOnUse" id="color-1"><stop offset="0.233" stop-color="#41a5ee"></stop><stop offset="0.317" stop-color="#3994de"></stop><stop offset="0.562" stop-color="#2366b4"></stop><stop offset="0.751" stop-color="#154a9b"></stop><stop offset="0.86" stop-color="#103f91"></stop></linearGradient><linearGradient x1="24" y1="6" x2="24" y2="18" gradientUnits="userSpaceOnUse" id="color-2"><stop offset="0.233" stop-color="#e8457c"></stop><stop offset="0.272" stop-color="#e14177"></stop><stop offset="0.537" stop-color="#b32c59"></stop><stop offset="0.742" stop-color="#971e46"></stop><stop offset="0.86" stop-color="#8c193f"></stop></linearGradient><linearGradient x1="24" y1="30" x2="24" y2="42" gradientUnits="userSpaceOnUse" id="color-3"><stop offset="0.233" stop-color="#33c481"></stop><stop offset="0.325" stop-color="#2eb173"></stop><stop offset="0.566" stop-color="#228353"></stop><stop offset="0.752" stop-color="#1b673f"></stop><stop offset="0.86" stop-color="#185c37"></stop></linearGradient><linearGradient x1="24" y1="6" x2="24" y2="42" gradientUnits="userSpaceOnUse" id="color-4"><stop offset="0.039" stop-color="#f8c819"></stop><stop offset="0.282" stop-color="#af4316"></stop></linearGradient><linearGradient x1="24" y1="12" x2="24" y2="42" gradientUnits="userSpaceOnUse" id="color-5"><stop offset="0" stop-color="#eaad29"></stop><stop offset="0.245" stop-color="#d98e24"></stop><stop offset="0.632" stop-color="#c0631c"></stop><stop offset="0.828" stop-color="#b75219"></stop><stop offset="0.871" stop-color="#a94917"></stop><stop offset="0.949" stop-color="#943b13"></stop><stop offset="1" stop-color="#8c3612"></stop></linearGradient><linearGradient x1="24" y1="21" x2="24" y2="32" gradientUnits="userSpaceOnUse" id="color-6"><stop offset="0.613" stop-color="#e6e6e6"></stop><stop offset="0.785" stop-color="#e4e4e4"></stop><stop offset="0.857" stop-color="#dddddd"></stop><stop offset="0.91" stop-color="#d1d1d1"></stop><stop offset="0.953" stop-color="#bfbfbf"></stop><stop offset="0.967" stop-color="#b8b8b8"></stop></linearGradient></defs><g transform="translate(-42.24,-42.24) scale(1.33,1.33)"><g fill="none" fill-rule="nonzero" stroke="none" stroke-width="1" stroke-linecap="butt" stroke-linejoin="miter" stroke-miterlimit="10" stroke-dasharray="" stroke-dashoffset="0" font-family="none" font-weight="none" font-size="none" text-anchor="none" style="mix-blend-mode: normal"><g transform="scale(5.33333,5.33333)"><rect x="6" y="18" width="36" height="12" fill="url(#color-1)"></rect><path d="M42,18h-36v-10c0,-1.105 0.895,-2 2,-2h32c1.105,0 2,0.895 2,2z" fill="url(#color-2)"></path><path d="M40,42h-32c-1.105,0 -2,-0.895 -2,-2v-10h36v10c0,1.105 -0.895,2 -2,2z" fill="url(#color-3)"></path><rect x="17" y="6" width="14" height="36" fill="#000000" opacity="0.05"></rect><rect x="17.5" y="6" width="13" height="36" fill="#000000" opacity="0.07"></rect><rect x="18" y="6" width="12" height="36" fill="url(#color-4)"></rect><path d="M24,12c-3.314,0 -6,2.686 -6,6v24h12v-24c0,-3.314 -2.686,-6 -6,-6z" fill="url(#color-5)"></path><path d="M20,32c-0.73,0 -1.41,-0.2 -2,-0.55v1.14c0.61,0.26 1.29,0.41 2,0.41h8c0.71,0 1.39,-0.15 2,-0.41v-1.14c-0.59,0.35 -1.27,0.55 -2,0.55zM29,22v6c0,0.55 -0.45,1 -1,1h-2v-2c0,-1.1 -0.9,-2 -2,-2c-1.1,0 -2,0.9 -2,2v2h-2c-0.55,0 -1,-0.45 -1,-1v-6c0,-0.55 -0.45,-1 -1,-1v7c0,1.1 0.9,2 2,2h3v-3c0,-0.55 0.45,-1 1,-1c0.55,0 1,0.45 1,1v3h3c1.1,0 2,-0.9 2,-2v-7c-0.55,0 -1,0.45 -1,1z" fill="#000000" opacity="0.05"></path><path d="M29.5,22v6c0,0.83 -0.67,1.5 -1.5,1.5h-2.5v-2.5c0,-0.83 -0.67,-1.5 -1.5,-1.5c-0.83,0 -1.5,0.67 -1.5,1.5v2.5h-2.5c-0.83,0 -1.5,-0.67 -1.5,-1.5v-6c0,-0.28 -0.22,-0.5 -0.5,-0.5v6.5c0,1.1 0.9,2 2,2h3v-3c0,-0.55 0.45,-1 1,-1c0.55,0 1,0.45 1,1v3h3c1.1,0 2,-0.9 2,-2v-6.5c-0.28,0 -0.5,0.22 -0.5,0.5zM20,32c-0.73,0 -1.41,-0.2 -2,-0.55v0.58c0.6,0.3 1.28,0.47 2,0.47h8c0.72,0 1.4,-0.17 2,-0.47v-0.58c-0.59,0.35 -1.27,0.55 -2,0.55z" fill="#000000" opacity="0.07"></path><path d="M32,23v5c0,2.2 -1.8,4 -4,4h-8c-2.2,0 -4,-1.8 -4,-4v-5c0,-1.105 0.895,-2 2,-2v0v7c0,1.105 0.895,2 2,2h3v-3c0,-0.552 0.448,-1 1,-1v0c0.552,0 1,0.448 1,1v3h3c1.105,0 2,-0.895 2,-2v-7c1.1,0 2,0.9 2,2z" fill="url(#color-6)"></path></g></g></g></svg>